<svg width="349" height="349" viewBox="0 0 349 349" fill="none" xmlns="http://www.w3.org/2000/svg">
<mask id="mask0_248_1326" style="mask-type:alpha" maskUnits="userSpaceOnUse" x="0" y="0" width="349" height="349">
<path fill-rule="evenodd" clip-rule="evenodd" d="M349 0H0V349H349V0ZM173.188 238.789C209.419 238.789 238.789 209.419 238.789 173.188C238.789 136.957 209.419 107.586 173.188 107.586C136.957 107.586 107.586 136.957 107.586 173.188C107.586 209.419 136.957 238.789 173.188 238.789Z" fill="#D9D9D9"/>
</mask>
<g mask="url(#mask0_248_1326)">
<ellipse cx="174.5" cy="233.541" rx="115.459" ry="115.459" fill="#F0D400"/>
<ellipse cx="115.459" cy="174.5" rx="115.459" ry="115.459" transform="rotate(-90 115.459 174.5)" fill="#283A73"/>
<ellipse cx="174.5" cy="115.459" rx="115.459" ry="115.459" fill="#4561BD"/>
<path fill-rule="evenodd" clip-rule="evenodd" d="M68.8398 280.16C86.7551 320.705 127.323 349 174.5 349C238.266 349 289.959 297.307 289.959 233.541C289.959 186.365 261.664 145.796 221.119 127.881C227.419 142.138 230.917 157.911 230.917 174.5C230.917 238.266 179.225 289.959 115.459 289.959C98.8693 289.959 83.0972 286.46 68.8398 280.16Z" fill="#F0D400"/>
<path fill-rule="evenodd" clip-rule="evenodd" d="M349 174.5C349 110.734 297.307 59.0413 233.541 59.0413C186.365 59.0413 145.797 87.336 127.881 127.881C142.139 121.581 157.911 118.083 174.5 118.083C238.266 118.083 289.959 169.775 289.959 233.541C289.959 250.131 286.46 265.903 280.16 280.16C320.705 262.245 349 221.677 349 174.5Z" fill="#F0E63A"/>
</g>
</svg>
